<svg xmlns="http://www.w3.org/2000/svg" version="1.1" xmlns:xlink="http://www.w3.org/1999/xlink" xmlns:svgjs="http://svgjs.dev/svgjs" width="1000" height="1000" viewBox="0 0 1000 1000"><rect width="1000" height="1000" fill="#000000"></rect><g transform="matrix(0.7,0,0,0.7,149.58385207921566,434.97109639435223)"><svg viewBox="0 0 396 74" data-background-color="#755bb4" preserveAspectRatio="xMidYMid meet" height="186" width="1000" xmlns="http://www.w3.org/2000/svg" xmlns:xlink="http://www.w3.org/1999/xlink"><g id="tight-bounds" transform="matrix(1,0,0,1,0.23998272102801366,-0.04040808895598502)"><svg viewBox="0 0 395.52 74.080816177912" height="74.080816177912" width="395.52"><g><svg viewBox="0 0 558.3271124973705 104.57455549166187" height="74.080816177912" width="395.52"><g><rect width="4.384198320734216" height="104.57455549166187" x="146.94595522183468" y="0" fill="#ffffff" opacity="1" stroke-width="0" stroke="transparent" fill-opacity="1" class="rect-o-0" data-fill-palette-color="primary" rx="1%" id="o-0" data-palette-color="#bb84e8"></rect></g><g transform="matrix(1,0,0,1,162.8071124973705,0.2601357101782611)"><svg viewBox="0 0 395.52000000000004 104.05428407130535" height="104.05428407130535" width="395.52000000000004"><g id="textblocktransform"><svg viewBox="0 0 395.52000000000004 104.05428407130535" height="104.05428407130535" width="395.52000000000004" id="textblock"><g><svg viewBox="0 0 395.52000000000004 104.05428407130535" height="104.05428407130535" width="395.52000000000004"><g transform="matrix(1,0,0,1,0,0)"><svg width="395.52000000000004" viewBox="0.49999964237213135 -36 349.2999572753906 82.19999694824219" height="104.05428407130535" data-palette-color="#bb84e8"><svg></svg><svg></svg><g class="wordmark-text-0" data-fill-palette-color="primary" id="text-0"><path xmlns="http://www.w3.org/2000/svg" d="M16.93 3.73c-0.653 1.113-1.603 1.897-2.85 2.35-1.253 0.447-2.67 0.67-4.25 0.67-1.587 0-2.747-0.023-3.48-0.07-0.733-0.053-1.507-0.187-2.32-0.4-0.82-0.22-1.463-0.513-1.93-0.88v0c-1.067-0.9-1.6-2.3-1.6-4.2v0c0-2.733 0.7-4.1 2.1-4.1v0c0.433 0 0.767-0.067 1-0.2v0c0.633-0.3 0.95-1.333 0.95-3.1v0-26.05c0-0.733 0.96-1.46 2.88-2.18 1.913-0.713 3.953-1.07 6.12-1.07v0c3.3 0 4.95 0.783 4.95 2.35v0 27.65c0 2.3-0.1 4.133-0.3 5.5-0.2 1.367-0.623 2.61-1.27 3.73zM47.95-2.1c-1 0.733-2.39 1.34-4.17 1.82-1.787 0.487-4.087 0.73-6.9 0.73-2.82 0-5.497-0.233-8.03-0.7-2.533-0.467-4.35-0.983-5.45-1.55-1.1-0.567-1.65-1.117-1.65-1.65v0c0-1.867 0.267-3.81 0.8-5.83 0.533-2.013 1.167-3.02 1.9-3.02v0c0.133 0 1.517 0.45 4.15 1.35 2.633 0.9 4.617 1.35 5.95 1.35 1.333 0 2.2-0.143 2.6-0.43 0.4-0.28 0.6-0.687 0.6-1.22 0-0.533-0.367-1.01-1.1-1.43-0.733-0.413-1.65-0.78-2.75-1.1-1.1-0.313-2.29-0.77-3.57-1.37-1.287-0.6-2.48-1.267-3.58-2-1.1-0.733-2.017-1.777-2.75-3.13-0.733-1.347-1.1-2.887-1.1-4.62v0c0-7.4 4.417-11.1 13.25-11.1v0c3.3 0 6.15 0.207 8.55 0.62 2.4 0.42 4.093 0.887 5.08 1.4 0.98 0.52 1.47 1.03 1.47 1.53v0c0 1.733-0.407 3.6-1.22 5.6-0.82 2-1.613 3-2.38 3v0c-0.133 0-0.567-0.15-1.3-0.45v0c-2.2-0.967-4.023-1.45-5.47-1.45-1.453 0-2.44 0.133-2.96 0.4-0.513 0.267-0.77 0.673-0.77 1.22 0 0.553 0.367 1.003 1.1 1.35 0.733 0.353 1.643 0.67 2.73 0.95 1.08 0.287 2.263 0.72 3.55 1.3 1.28 0.587 2.47 1.27 3.57 2.05 1.1 0.787 2.017 1.897 2.75 3.33 0.733 1.433 1.1 3.1 1.1 5v0c0 2-0.517 3.817-1.55 5.45v0c-0.633 1-1.45 1.867-2.45 2.6zM69.15-1.55c0 0.433-1.023 0.783-3.07 1.05-2.053 0.267-4.097 0.4-6.13 0.4-2.033 0-3.333-0.117-3.9-0.35-0.567-0.233-0.85-0.6-0.85-1.1v0-30.65c0-0.867 0.943-1.633 2.83-2.3 1.88-0.667 4.053-1 6.52-1v0c2.033 0 3.35 0.4 3.95 1.2v0c0.433 0.567 0.65 1.083 0.65 1.55v0 8.25h0.4c0-0.167 0.5-1.55 1.5-4.15v0c1.9-4.9 3.283-7.35 4.15-7.35v0c1.633 0 3.933 0.483 6.9 1.45v0c1.433 0.467 2.667 1.143 3.7 2.03 1.033 0.88 1.55 1.853 1.55 2.92v0c0 0.667-0.673 1.957-2.02 3.87-1.353 1.92-3.397 4.48-6.13 7.68v0c0.633 0.667 1.433 1.517 2.4 2.55 0.967 1.033 2.257 2.573 3.87 4.62 1.62 2.053 2.43 3.513 2.43 4.38 0 0.867-0.783 1.873-2.35 3.02-1.567 1.153-3.233 2.087-5 2.8-1.767 0.72-3.083 1.08-3.95 1.08v0c-0.567 0-1.34-0.86-2.32-2.58-0.987-1.713-2.18-4.287-3.58-7.72v0l-1.55 1.85z" fill="#ffffff" fill-rule="nonzero" stroke="none" stroke-width="1" stroke-linecap="butt" stroke-linejoin="miter" stroke-miterlimit="10" stroke-dasharray="" stroke-dashoffset="0" font-family="none" font-weight="none" font-size="none" text-anchor="none" style="mix-blend-mode: normal" data-fill-palette-color="primary" opacity="1"></path><path xmlns="http://www.w3.org/2000/svg" d="M27.35 45.75v0h-21.2c-1.633 0-2.733-0.117-3.3-0.35-0.567-0.233-0.85-0.6-0.85-1.1v0-31.65c0-0.867 0.393-1.483 1.18-1.85 0.78-0.367 2.187-0.55 4.22-0.55v0h20.1c0.7 0 1.05 1.16 1.05 3.48 0 2.313-0.15 4.077-0.45 5.29-0.3 1.22-0.7 1.83-1.2 1.83v0c-2.167 0-5.817-0.217-10.95-0.65v0 3.35c4.933-0.2 8.15-0.3 9.65-0.3v0c0.9 0 1.35 1.05 1.35 3.15 0 2.1-0.173 3.69-0.52 4.77-0.353 1.087-0.83 1.63-1.43 1.63v0l-9.05-0.2v3.2c5.8-0.433 9.8-0.65 12-0.65v0c0.7 0 1.05 1.167 1.05 3.5 0 2.333-0.15 4.1-0.45 5.3-0.3 1.2-0.7 1.8-1.2 1.8zM46.45 44.3c0 0.433-1.023 0.783-3.07 1.05-2.053 0.267-4.097 0.4-6.13 0.4-2.033 0-3.333-0.117-3.9-0.35-0.567-0.233-0.85-0.6-0.85-1.1v0-30.7c0-0.833 0.96-1.6 2.88-2.3 1.913-0.7 4.087-1.05 6.52-1.05v0c0.867 0 1.517 0.033 1.95 0.1v0c1.133 0.167 1.933 0.883 2.4 2.15v0l4.8 12.9h0.2v-11.8c0-0.833 0.95-1.6 2.85-2.3 1.9-0.7 4.067-1.05 6.5-1.05v0c2.1 0 3.433 0.4 4 1.2v0c0.4 0.567 0.6 1.083 0.6 1.55v0 31.3c0 0.433-1.023 0.783-3.07 1.05-2.053 0.267-4.303 0.4-6.75 0.4-2.453 0-3.797-0.317-4.03-0.95v0l-4.65-12.3h-0.25zM90.45 44.55c0 0.367-1.023 0.657-3.07 0.87-2.053 0.22-4.103 0.33-6.15 0.33-2.053 0-3.353-0.093-3.9-0.28-0.553-0.18-0.83-0.487-0.83-0.92v0-21.5h-6.95c-0.367 0-0.683-0.467-0.95-1.4-0.267-0.933-0.4-2.327-0.4-4.18 0-1.847 0.2-3.51 0.6-4.99 0.4-1.487 0.933-2.23 1.6-2.23v0h27.05c0.5 0 0.843 0.467 1.03 1.4 0.18 0.933 0.27 2.283 0.27 4.05 0 1.767-0.183 3.433-0.55 5-0.367 1.567-0.867 2.35-1.5 2.35v0h-6.25zM127.1 45.75v0h-21.2c-1.633 0-2.733-0.117-3.3-0.35-0.567-0.233-0.85-0.6-0.85-1.1v0-31.65c0-0.867 0.39-1.483 1.17-1.85 0.787-0.367 2.197-0.55 4.23-0.55v0h20.1c0.7 0 1.05 1.16 1.05 3.48 0 2.313-0.15 4.077-0.45 5.29-0.3 1.22-0.7 1.83-1.2 1.83v0c-2.167 0-5.817-0.217-10.95-0.65v0 3.35c4.933-0.2 8.15-0.3 9.65-0.3v0c0.9 0 1.35 1.05 1.35 3.15 0 2.1-0.177 3.69-0.53 4.77-0.347 1.087-0.82 1.63-1.42 1.63v0l-9.05-0.2v3.2c5.8-0.433 9.8-0.65 12-0.65v0c0.7 0 1.05 1.167 1.05 3.5 0 2.333-0.15 4.1-0.45 5.3-0.3 1.2-0.7 1.8-1.2 1.8zM146.25 34.05v10.25c0 0.433-1.017 0.783-3.05 1.05-2.033 0.267-4.077 0.4-6.13 0.4-2.047 0-3.36-0.117-3.94-0.35-0.587-0.233-0.88-0.6-0.88-1.1v0-32.15c0-0.867 1.093-1.483 3.28-1.85 2.18-0.367 4.937-0.55 8.27-0.55 3.333 0 5.493 0.007 6.48 0.02 0.98 0.02 2.137 0.08 3.47 0.18 1.333 0.1 2.393 0.267 3.18 0.5 0.78 0.233 1.647 0.533 2.6 0.9 0.947 0.367 1.687 0.84 2.22 1.42 0.533 0.587 1.05 1.28 1.55 2.08v0c0.9 1.433 1.35 3.473 1.35 6.12 0 2.653-0.443 4.89-1.33 6.71-0.88 1.813-2.053 3.187-3.52 4.12v0c3.833 6.033 5.75 9.867 5.75 11.5 0 1.633-3.283 2.45-9.85 2.45v0c-1.9 0-3.217-0.083-3.95-0.25-0.733-0.167-1.2-0.533-1.4-1.1v0l-3.25-10.3zM146.25 17.65v8.7h1.3c1.933 0 2.9-1.5 2.9-4.5v0c0-1.533-0.257-2.617-0.77-3.25-0.52-0.633-1.113-0.95-1.78-0.95v0zM181.95 36.7v7.6c0 0.433-1.017 0.783-3.05 1.05-2.033 0.267-4.067 0.4-6.1 0.4-2.033 0-3.333-0.117-3.9-0.35-0.567-0.233-0.85-0.6-0.85-1.1v0-32.15c0-1.6 4.8-2.4 14.4-2.4v0c5.8 0 9.633 0.4 11.5 1.2v0c2.267 0.933 3.8 2.2 4.6 3.8v0c1.067 2.067 1.6 4.717 1.6 7.95v0c0 4.433-0.767 7.65-2.3 9.65v0c-1.1 1.467-2.2 2.417-3.3 2.85-1.1 0.433-2.007 0.74-2.72 0.92-0.72 0.187-1.613 0.33-2.68 0.43v0c-1.467 0.133-3.467 0.2-6 0.2v0zM182 18.15v10.25h1.2c0.633 0 1.133-0.093 1.5-0.28 0.367-0.18 0.693-0.68 0.98-1.5 0.28-0.813 0.42-1.963 0.42-3.45 0-1.48-0.157-2.613-0.47-3.4-0.32-0.78-0.637-1.247-0.95-1.4-0.32-0.147-0.697-0.22-1.13-0.22v0zM217.4 34.05v10.25c0 0.433-1.017 0.783-3.05 1.05-2.033 0.267-4.077 0.4-6.13 0.4-2.047 0-3.36-0.117-3.94-0.35-0.587-0.233-0.88-0.6-0.88-1.1v0-32.15c0-0.867 1.093-1.483 3.28-1.85 2.18-0.367 4.937-0.55 8.27-0.55 3.333 0 5.493 0.007 6.48 0.02 0.98 0.02 2.137 0.08 3.47 0.18 1.333 0.1 2.393 0.267 3.18 0.5 0.78 0.233 1.647 0.533 2.6 0.9 0.947 0.367 1.687 0.84 2.22 1.42 0.533 0.587 1.05 1.28 1.55 2.08v0c0.9 1.433 1.35 3.473 1.35 6.12 0 2.653-0.44 4.89-1.32 6.71-0.887 1.813-2.063 3.187-3.53 4.12v0c3.833 6.033 5.75 9.867 5.75 11.5 0 1.633-3.283 2.45-9.85 2.45v0c-1.9 0-3.217-0.083-3.95-0.25-0.733-0.167-1.2-0.533-1.4-1.1v0l-3.25-10.3zM217.4 17.65v8.7h1.3c1.933 0 2.9-1.5 2.9-4.5v0c0-1.533-0.257-2.617-0.77-3.25-0.52-0.633-1.113-0.95-1.78-0.95v0zM253.15 44.55c0 0.367-1.017 0.657-3.05 0.87-2.033 0.22-4.073 0.33-6.12 0.33-2.053 0-3.363-0.093-3.93-0.28-0.567-0.18-0.85-0.487-0.85-0.92v0-31.1c0-0.733 0.967-1.46 2.9-2.18 1.933-0.713 4.1-1.07 6.5-1.07v0c2.133 0 3.533 0.45 4.2 1.35v0c0.233 0.333 0.35 0.667 0.35 1v0zM282.6 43.65c-1 0.733-2.39 1.34-4.17 1.82-1.787 0.487-4.09 0.73-6.91 0.73-2.813 0-5.487-0.233-8.02-0.7-2.533-0.467-4.35-0.983-5.45-1.55-1.1-0.567-1.65-1.117-1.65-1.65v0c0-1.867 0.267-3.81 0.8-5.83 0.533-2.013 1.167-3.02 1.9-3.02v0c0.133 0 1.517 0.45 4.15 1.35 2.633 0.9 4.617 1.35 5.95 1.35 1.333 0 2.2-0.143 2.6-0.43 0.4-0.28 0.6-0.687 0.6-1.22 0-0.533-0.367-1.01-1.1-1.43-0.733-0.413-1.65-0.78-2.75-1.1-1.1-0.313-2.29-0.77-3.57-1.37-1.287-0.6-2.48-1.267-3.58-2-1.1-0.733-2.017-1.777-2.75-3.13-0.733-1.347-1.1-2.887-1.1-4.62v0c0-7.4 4.417-11.1 13.25-11.1v0c3.3 0 6.15 0.207 8.55 0.62 2.4 0.42 4.093 0.887 5.08 1.4 0.98 0.52 1.47 1.03 1.47 1.53v0c0 1.733-0.407 3.6-1.22 5.6-0.82 2-1.613 3-2.38 3v0c-0.133 0-0.567-0.15-1.3-0.45v0c-2.2-0.967-4.027-1.45-5.48-1.45-1.447 0-2.43 0.133-2.95 0.4-0.513 0.267-0.77 0.673-0.77 1.22 0 0.553 0.367 1.003 1.1 1.35 0.733 0.353 1.643 0.67 2.73 0.95 1.08 0.287 2.263 0.72 3.55 1.3 1.28 0.587 2.47 1.27 3.57 2.05 1.1 0.787 2.017 1.897 2.75 3.33 0.733 1.433 1.1 3.1 1.1 5v0c0 2-0.517 3.817-1.55 5.45v0c-0.633 1-1.45 1.867-2.45 2.6zM315.2 45.75v0h-21.2c-1.633 0-2.733-0.117-3.3-0.35-0.567-0.233-0.85-0.6-0.85-1.1v0-31.65c0-0.867 0.393-1.483 1.18-1.85 0.78-0.367 2.187-0.55 4.22-0.55v0h20.1c0.7 0 1.05 1.16 1.05 3.48 0 2.313-0.15 4.077-0.45 5.29-0.3 1.22-0.7 1.83-1.2 1.83v0c-2.167 0-5.817-0.217-10.95-0.65v0 3.35c4.933-0.2 8.15-0.3 9.65-0.3v0c0.9 0 1.35 1.05 1.35 3.15 0 2.1-0.173 3.69-0.52 4.77-0.353 1.087-0.83 1.63-1.43 1.63v0l-9.05-0.2v3.2c5.8-0.433 9.8-0.65 12-0.65v0c0.7 0 1.05 1.167 1.05 3.5 0 2.333-0.15 4.1-0.45 5.3-0.3 1.2-0.7 1.8-1.2 1.8zM345.8 43.65c-1 0.733-2.39 1.34-4.17 1.82-1.787 0.487-4.087 0.73-6.9 0.73-2.82 0-5.497-0.233-8.03-0.7-2.533-0.467-4.35-0.983-5.45-1.55-1.1-0.567-1.65-1.117-1.65-1.65v0c0-1.867 0.267-3.81 0.8-5.83 0.533-2.013 1.167-3.02 1.9-3.02v0c0.133 0 1.517 0.45 4.15 1.35 2.633 0.9 4.617 1.35 5.95 1.35 1.333 0 2.2-0.143 2.6-0.43 0.4-0.28 0.6-0.687 0.6-1.22 0-0.533-0.367-1.01-1.1-1.43-0.733-0.413-1.65-0.78-2.75-1.1-1.1-0.313-2.29-0.77-3.57-1.37-1.287-0.6-2.48-1.267-3.58-2-1.1-0.733-2.017-1.777-2.75-3.13-0.733-1.347-1.1-2.887-1.1-4.62v0c0-7.4 4.417-11.1 13.25-11.1v0c3.3 0 6.15 0.207 8.55 0.62 2.4 0.42 4.093 0.887 5.08 1.4 0.98 0.52 1.47 1.03 1.47 1.53v0c0 1.733-0.407 3.6-1.22 5.6-0.82 2-1.613 3-2.38 3v0c-0.133 0-0.567-0.15-1.3-0.45v0c-2.2-0.967-4.023-1.45-5.47-1.45-1.453 0-2.437 0.133-2.95 0.4-0.52 0.267-0.78 0.673-0.78 1.22 0 0.553 0.367 1.003 1.1 1.35 0.733 0.353 1.643 0.67 2.73 0.95 1.08 0.287 2.263 0.72 3.55 1.3 1.28 0.587 2.47 1.27 3.57 2.05 1.1 0.787 2.017 1.897 2.75 3.33 0.733 1.433 1.1 3.1 1.1 5v0c0 2-0.517 3.817-1.55 5.45v0c-0.633 1-1.45 1.867-2.45 2.6z" fill="#ffffff" fill-rule="nonzero" stroke="none" stroke-width="1" stroke-linecap="butt" stroke-linejoin="miter" stroke-miterlimit="10" stroke-dasharray="" stroke-dashoffset="0" font-family="none" font-weight="none" font-size="none" text-anchor="none" style="mix-blend-mode: normal" data-fill-palette-color="primary" opacity="1"></path></g></svg></g></svg></g></svg></g></svg></g><g transform="matrix(1,0,0,1,0,0.2601357101782611)"><svg viewBox="0 0 135.46899626703308 104.05428407130535" height="104.05428407130535" width="135.46899626703308"><g><svg xmlns="http://www.w3.org/2000/svg" data-name="Layer 1" viewBox="1.7099896669387817 12.920000076293945 96.55001068115234 74.16045379638672" x="0" y="0" height="104.05428407130535" width="135.46899626703308" class="icon-icon-0" data-fill-palette-color="accent" id="icon-0"><path d="M49.5 21.13H37.62a8.62 8.62 0 0 0-6.89 3.51c-0.13 0.13-0.26 0.39-0.39 0.52l-10 15.09-7.05 1A8.44 8.44 0 0 0 6 49.62V62a4.91 4.91 0 0 0-4.29 4.81V72.9a4.8 4.8 0 0 0 4.81 4.81h6A13 13 0 0 0 25 87.08a12.88 12.88 0 0 0 12.49-9.37H57A13 13 0 0 0 69.5 87.08 12.88 12.88 0 0 0 82 77.71h6.89a4.8 4.8 0 0 0 4.81-4.81V63.69A4.88 4.88 0 0 0 90.05 59v-0.09H56a3.7 3.7 0 0 1-3.7-3.7V23.92A2.79 2.79 0 0 0 49.5 21.13ZM25 80.58a6.61 6.61 0 0 1-6.5-6.5 6.52 6.52 0 0 1 6.5-6.5 6.61 6.61 0 0 1 6.5 6.5A6.52 6.52 0 0 1 25 80.58Zm44.48-13a6.61 6.61 0 0 1 6.5 6.5 6.5 6.5 0 1 1-6.5-6.5ZM98.26 51.41V15.73a2.81 2.81 0 0 0-2.81-2.81H59.77A2.81 2.81 0 0 0 57 15.73V51.41a2.81 2.81 0 0 0 2.81 2.81H95.45A2.81 2.81 0 0 0 98.26 51.41Zm-8-5.19H65V20.92H90.26Z" fill="#ffffff" data-fill-palette-color="accent"></path></svg></g></svg></g></svg></g><defs></defs></svg><rect width="395.52" height="74.080816177912" fill="none" stroke="none" visibility="hidden"></rect></g></svg></g></svg>